<?xml version="1.0" standalone="no"?>
<!DOCTYPE svg PUBLIC "-//W3C//DTD SVG 20010904//EN"
 "http://www.w3.org/TR/2001/REC-SVG-20010904/DTD/svg10.dtd">
<svg version="1.0" xmlns="http://www.w3.org/2000/svg"
 width="315.000000pt" height="315.000000pt" viewBox="0 0 315.000000 315.000000"
 preserveAspectRatio="xMidYMid meet">

<g transform="translate(0.000000,315.000000) scale(0.100000,-0.100000)"
fill="#000000" stroke="none">
<path d="M1350 2602 c-87 -24 -169 -62 -227 -106 -66 -50 -177 -182 -167 -198
3 -4 1 -8 -4 -8 -20 0 -46 -118 -50 -226 -5 -132 10 -200 65 -300 41 -76 129
-171 183 -199 19 -10 37 -21 40 -25 5 -7 63 -28 161 -59 77 -24 225 -8 342 38
28 11 124 75 163 108 34 30 113 144 125 182 6 20 15 41 19 46 19 24 33 141 27
229 -4 78 -11 108 -43 182 -33 77 -49 99 -114 164 -104 103 -105 103 -216 146
-55 20 -91 26 -174 29 -58 2 -116 1 -130 -3z"/>
<path d="M1245 1394 c-55 -6 -188 -35 -200 -43 -5 -4 -31 -15 -57 -25 -74 -27
-196 -112 -269 -185 -80 -82 -160 -201 -189 -284 -12 -34 -26 -69 -30 -79 -17
-31 -31 -142 -28 -213 3 -63 5 -71 28 -82 20 -10 219 -13 971 -11 1086 3 989
-6 989 96 0 30 -4 71 -9 91 -6 20 -17 68 -26 106 -18 78 -77 203 -130 274 -85
117 -246 244 -363 287 -26 10 -52 21 -58 26 -33 25 -159 39 -369 43 -121 1
-238 1 -260 -1z"/>
</g>
</svg>
